HIERARCHY
ROOT Hips
{
	OFFSET 0.000000 0.000000 0.000000
	CHANNELS 6 Xposition Yposition Zposition Xrotation Yrotation Zrotation
	JOINT LeftUpLeg_virtual
	{
		OFFSET 0.000000 0.000000 0.000000
		CHANNELS 3 Xrotation Yrotation Zrotation
		JOINT LeftUpLeg
		{
			OFFSET 10.205400 -3.823500 0.155100
			CHANNELS 3 Xrotation Yrotation Zrotation
			JOINT LeftLeg
			{
				OFFSET 0.708757 -12.982077 0.567790
				CHANNELS 3 Xrotation Yrotation Zrotation
				JOINT LeftFoot
				{
					OFFSET -0.708756 -10.717838 -2.184338
					CHANNELS 3 Xrotation Yrotation Zrotation
					JOINT LeftToeBase
					{
						OFFSET 0.108149 -7.191104 7.560241
						CHANNELS 3 Xrotation Yrotation Zrotation
						JOINT LeftToe_End
						{
							OFFSET 0.070230 0.081724 4.490308
							CHANNELS 3 Xrotation Yrotation Zrotation
							End Site
							{
								OFFSET 0 0 0
							}
						}
					}
				}
			}
		}
	}
	JOINT RightUpLeg_virtual
	{
		OFFSET 0.000000 0.000000 0.000000
		CHANNELS 3 Xrotation Yrotation Zrotation
		JOINT RightUpLeg
		{
			OFFSET -10.205400 -3.823500 0.005500
			CHANNELS 3 Xrotation Yrotation Zrotation
			JOINT RightLeg
			{
				OFFSET -0.708756 -12.982134 0.610632
				CHANNELS 3 Xrotation Yrotation Zrotation
				JOINT RightFoot
				{
					OFFSET 0.708754 -10.717769 -1.945823
					CHANNELS 3 Xrotation Yrotation Zrotation
					JOINT RightToeBase
					{
						OFFSET -0.108140 -7.191069 7.372968
						CHANNELS 3 Xrotation Yrotation Zrotation
						JOINT RightToe_End
						{
							OFFSET -0.070227 0.081735 4.479403
							CHANNELS 3 Xrotation Yrotation Zrotation
							End Site
							{
								OFFSET 0 0 0
							}
						}
					}
				}
			}
		}
	}
	JOINT Spine_virtual
	{
		OFFSET 0.000000 0.000000 0.000000
		CHANNELS 3 Xrotation Yrotation Zrotation
		JOINT Spine
		{
			OFFSET 0.000000 6.876099 0.125700
			CHANNELS 3 Xrotation Yrotation Zrotation
			JOINT Spine1
			{
				OFFSET 0.000000 5.730043 0.104720
				CHANNELS 3 Xrotation Yrotation Zrotation
				JOINT Spine1_split
				{
					OFFSET 0.000000 5.730043 0.104720
					CHANNELS 3 Xrotation Yrotation Zrotation
					JOINT Spine2
					{
						OFFSET 0.000000 5.730043 0.104720
						CHANNELS 3 Xrotation Yrotation Zrotation
						JOINT Neck_virtual
						{
							OFFSET 0.000000 0.000000 0.000000
							CHANNELS 3 Xrotation Yrotation Zrotation
							JOINT Neck
							{
								OFFSET 0.000000 10.314075 0.188496
								CHANNELS 3 Xrotation Yrotation Zrotation
								JOINT Head
								{
									OFFSET 0.000000 7.643700 -2.377400
									CHANNELS 3 Xrotation Yrotation Zrotation
									JOINT HeadTop_End
									{
										OFFSET 0.000000 43.788605 -13.619600
										CHANNELS 3 Xrotation Yrotation Zrotation
										End Site
										{
											OFFSET 0 0 0
										}
									}
								}
							}
						}
						JOINT LeftShoulder_virtual
						{
							OFFSET 0.000000 0.000000 0.000000
							CHANNELS 3 Xrotation Yrotation Zrotation
							JOINT LeftShoulder
							{
								OFFSET 2.196100 4.412489 0.087492
								CHANNELS 3 Xrotation Yrotation Zrotation
								JOINT LeftShoulder_split
								{
									OFFSET 2.196100 4.412489 0.087492
									CHANNELS 3 Xrotation Yrotation Zrotation
									JOINT LeftArm
									{
										OFFSET 8.771219 -2.981674 -0.026999
										CHANNELS 3 Xrotation Yrotation Zrotation
										JOINT LeftForeArm
										{
											OFFSET 8.512804 0.000000 -0.000000
											CHANNELS 3 Xrotation Yrotation Zrotation
											JOINT LeftHand
											{
												OFFSET 18.484802 0.000000 -0.000000
												CHANNELS 3 Xrotation Yrotation Zrotation
												End Site
												{
													OFFSET 0 0 0
												}
											}
										}
									}
								}
							}
						}
						JOINT RightShoulder_virtual
						{
							OFFSET 0.000000 0.000000 0.000000
							CHANNELS 3 Xrotation Yrotation Zrotation
							JOINT RightShoulder
							{
								OFFSET -2.196100 4.412496 0.070690
								CHANNELS 3 Xrotation Yrotation Zrotation
								JOINT RightShoulder_split
								{
									OFFSET -2.196100 4.412496 0.070690
									CHANNELS 3 Xrotation Yrotation Zrotation
									JOINT RightArm
									{
										OFFSET -8.771282 -2.981682 -0.094208
										CHANNELS 3 Xrotation Yrotation Zrotation
										JOINT RightForeArm
										{
											OFFSET -8.494598 0.000000 0.000000
											CHANNELS 3 Xrotation Yrotation Zrotation
											JOINT RightHand
											{
												OFFSET -18.483803 0.000000 0.000001
												CHANNELS 3 Xrotation Yrotation Zrotation
												End Site
												{
													OFFSET 0 0 0
												}
											}
										}
									}
								}
							}
						}
					}
				}
			}
		}
	}
}
MOTION
Frames: 4
Frame Time: 0.03333333
0.132865 24.870396 0.394720 0.000000 0.000000 0.000000 -36.678587 -74.521633 -33.095839 -30.632278 2.525253 62.045650 53.513590 -5.905344 -1.625087 -12.960087 -0.528442 -25.765610 -1.691866 -2.480288 -9.962801 0.000000 0.000000 0.000000 -97.959700 -88.259984 -100.474480 -36.151413 13.318122 -48.367571 74.461957 24.445090 19.831811 -29.292670 -19.439311 20.807183 -5.820621 0.766816 -9.470357 0.000000 0.000000 0.000000 -13.613201 -80.006876 -15.119034 3.238329 0.095813 -0.595505 3.937053 -0.767533 -5.520661 -0.325859 2.707025 -0.107254 0.000000 0.000000 0.000000 3.190860 -0.090656 -2.961085 0.437005 -3.883277 0.519074 -11.878336 40.051184 15.609805 0.000000 0.000000 0.000000 8.476052 2.237227 -5.241146 -4.020523 -8.411677 -16.961028 -1.506177 2.042758 9.294090 -41.312758 -23.042786 0.582249 -6.185826 -21.308098 -1.641416 0.000000 0.000000 0.000000 4.093029 5.303831 -1.928911 -0.651939 15.398846 1.529184 -0.772133 -4.877019 -6.446400 -37.857877 68.585741 65.213615 0.834358 63.640902 -0.529315 0.000000 0.000000 0.000000 
0.172701 24.934856 0.251577 0.000000 0.000000 0.000000 -38.815975 -75.104473 -35.324652 -29.985470 2.950231 61.937392 53.290007 -5.543109 -1.552906 -12.625683 -0.506295 -25.427954 -1.995152 -2.151881 -9.531970 0.000000 0.000000 0.000000 -114.345180 -87.894481 -116.746292 -36.355116 13.301854 -48.425286 74.384052 24.946508 20.036789 -29.099949 -19.135014 21.162424 -5.973662 0.624188 -9.618348 0.000000 0.000000 0.000000 -16.955895 -80.402569 -18.553695 3.100691 -0.132046 -0.701841 3.879270 -0.688425 -5.423304 -0.443165 2.799166 0.107517 0.000000 0.000000 0.000000 3.163613 -0.027507 -2.858673 0.463921 -3.892112 0.505717 -11.739536 39.992646 15.697795 0.000000 0.000000 0.000000 8.513363 2.456790 -5.233176 -3.819501 -8.352827 -17.133188 -0.565549 2.316238 8.193894 -40.288561 -21.883110 1.080515 -6.705036 -23.311427 -1.927350 0.000000 0.000000 0.000000 4.180475 5.274758 -1.794844 -0.476766 15.380433 1.452059 -1.484572 -4.378249 -6.470409 -35.567302 67.567865 62.892887 0.834358 63.640902 -0.529315 0.000000 0.000000 0.000000 
0.267545 25.107258 0.127400 0.000000 0.000000 0.000000 -42.746377 -75.601663 -39.390145 -28.869369 4.124817 61.861105 52.459432 -4.157769 -1.261200 -11.828675 -1.099898 -25.399756 -2.057666 -1.597087 -9.834403 0.000000 0.000000 0.000000 -123.548642 -87.042626 -125.982293 -36.210323 13.184249 -48.262479 73.390594 25.494067 20.819434 -28.630958 -18.307323 20.967769 -4.873503 0.800228 -9.495312 0.000000 0.000000 0.000000 -21.976296 -80.967296 -23.680262 2.943683 -0.278941 -0.741467 3.825621 -0.591734 -5.111429 -0.483662 2.826241 0.266570 0.000000 0.000000 0.000000 3.156699 0.068815 -2.657628 0.513797 -3.855050 0.382121 -11.959427 41.061321 15.644500 0.000000 0.000000 0.000000 8.655473 2.697195 -4.798744 -3.733452 -8.453718 -17.865886 0.065490 2.062842 7.247158 -38.937754 -19.143789 0.203045 -5.350870 -25.976435 -1.866000 0.000000 0.000000 0.000000 4.580117 5.034792 -1.592340 -0.208213 15.231826 2.171392 -2.070353 -2.499278 -6.975551 -32.308294 65.268693 59.713858 0.834358 63.640902 -0.529315 0.000000 0.000000 0.000000 
0.352553 25.360270 0.027884 0.000000 0.000000 0.000000 -48.058447 -75.895997 -44.827932 -27.590549 5.654251 61.778228 51.128139 -2.292003 -0.754182 -10.980163 -1.926679 -25.832826 -1.669102 -1.039558 -10.917578 0.000000 0.000000 0.000000 -126.458138 -86.041505 -129.022328 -35.625734 12.922320 -47.911427 71.762667 25.603386 21.852603 -28.098966 -17.383340 20.171712 -3.055566 1.230081 -9.538814 0.000000 0.000000 0.000000 -28.632757 -81.321988 -30.371843 2.856833 -0.357712 -0.684813 3.818097 -0.545935 -4.617864 -0.450883 2.779990 0.329510 0.000000 0.000000 0.000000 3.192894 0.157132 -2.374303 0.571579 -3.738997 0.174815 -12.575080 43.108496 15.524986 0.000000 0.000000 0.000000 8.824264 2.936695 -3.964006 -3.808865 -8.904179 -19.269818 0.118831 1.854954 6.730507 -36.452177 -15.993339 -2.334072 -2.246426 -29.627308 -1.115349 0.000000 0.000000 0.000000 5.147208 4.587518 -1.336455 0.095585 15.034129 3.808496 -2.125301 -0.299437 -8.082945 -29.070760 62.430531 57.018078 0.834358 63.640902 -0.529315 0.000000 0.000000 0.000000 
